<svg xmlns="http://www.w3.org/2000/svg" xmlns:xlink="http://www.w3.org/1999/xlink" viewBox="0,0,256,256" width="48px" height="48px" fill-rule="nonzero"><g fill="none" fill-rule="nonzero" stroke="none" stroke-width="1" stroke-linecap="butt" stroke-linejoin="miter" stroke-miterlimit="10" stroke-dasharray="" stroke-dashoffset="0" font-family="none" font-weight="none" font-size="none" text-anchor="none" style="mix-blend-mode: normal"><g transform="scale(5.33333,5.33333)"><path d="M33,11c-7.1797,0 -13,5.8203 -13,13c0,7.1797 5.8203,13 13,13c7.1797,0 13,-5.8203 13,-13c0,-7.1797 -5.8203,-13 -13,-13z" fill="#f44336"></path><path d="M28,24h-8c0,-0.682 0.068,-1.347 0.169,-2h7.661c-0.105,-0.685 -0.255,-1.354 -0.464,-2h-6.732c0.225,-0.694 0.508,-1.362 0.84,-2h5.051c-0.369,-0.709 -0.804,-1.376 -1.293,-2h-2.465c0.379,-0.484 0.79,-0.941 1.233,-1.367c-0.226,-0.218 -0.455,-0.432 -0.696,-0.633c-2.252,-1.872 -5.146,-3 -8.304,-3c-7.18,0 -13,5.82 -13,13c0,7.18 5.82,13 13,13c3.496,0 6.664,-1.388 9,-3.633c0.443,-0.426 0.854,-0.883 1.232,-1.367h-2.465c-0.489,-0.624 -0.923,-1.291 -1.293,-2h5.051c0.333,-0.638 0.616,-1.306 0.841,-2h-6.732c-0.209,-0.646 -0.358,-1.315 -0.464,-2h7.661c0.101,-0.653 0.169,-1.318 0.169,-2z" fill="#2196f3"></path></g></g><g fill="#000000" fill-rule="nonzero" stroke="none" stroke-width="1" stroke-linecap="butt" stroke-linejoin="miter" stroke-miterlimit="10" stroke-dasharray="" stroke-dashoffset="0" font-family="none" font-weight="none" font-size="none" text-anchor="none" style="mix-blend-mode: normal"><g><path d="M70.74,206.76833h2.74l0.07,1.88c1.24,-1.46 2.91333,-2.19 5.02,-2.19v0c2.36667,0 3.97667,0.90667 4.83,2.72v0c0.56,-0.81333 1.29,-1.47 2.19,-1.97c0.90667,-0.5 1.97333,-0.75 3.2,-0.75v0c3.70667,0 5.59333,1.96333 5.66,5.89v0v11.33h-2.9v-11.16c0,-1.20667 -0.27333,-2.11 -0.82,-2.71c-0.55333,-0.6 -1.48,-0.9 -2.78,-0.9v0c-1.07333,0 -1.96667,0.32333 -2.68,0.97c-0.70667,0.64 -1.11667,1.5 -1.23,2.58v0v11.22h-2.91v-11.08c0,-2.46 -1.20333,-3.69 -3.61,-3.69v0c-1.89333,0 -3.19,0.81 -3.89,2.43v0v12.34h-2.89zM112.27,223.67833h-3.03c-0.16667,-0.33333 -0.3,-0.92667 -0.4,-1.78v0c-1.34667,1.39333 -2.95333,2.09 -4.82,2.09v0c-1.66667,0 -3.03333,-0.47 -4.1,-1.41c-1.06667,-0.94667 -1.6,-2.14333 -1.6,-3.59v0c0,-1.76 0.67,-3.12667 2.01,-4.1c1.34,-0.97333 3.22333,-1.46 5.65,-1.46v0h2.81v-1.33c0,-1.00667 -0.30333,-1.81 -0.91,-2.41c-0.6,-0.6 -1.49,-0.9 -2.67,-0.9v0c-1.03333,0 -1.89667,0.26 -2.59,0.78c-0.7,0.52 -1.05,1.15 -1.05,1.89v0h-2.91c0,-0.84 0.3,-1.65333 0.9,-2.44c0.6,-0.78667 1.41333,-1.41 2.44,-1.87c1.02667,-0.46 2.15333,-0.69 3.38,-0.69v0c1.94667,0 3.47333,0.48667 4.58,1.46c1.10667,0.97333 1.68,2.31667 1.72,4.03v0v7.78c0,1.55333 0.19667,2.78667 0.59,3.7v0zM104.45,221.47833v0c0.9,0 1.75667,-0.23667 2.57,-0.71c0.81333,-0.46667 1.40333,-1.07333 1.77,-1.82v0v-3.47h-2.27c-3.54,0 -5.31,1.03667 -5.31,3.11v0c0,0.90667 0.30333,1.61333 0.91,2.12c0.6,0.51333 1.37667,0.77 2.33,0.77zM123.23,223.98833v0c-2.29333,0 -4.16,-0.75333 -5.6,-2.26c-1.43333,-1.5 -2.15,-3.51 -2.15,-6.03v0v-0.54c0,-1.67333 0.32,-3.17 0.96,-4.49c0.64,-1.31333 1.53333,-2.34333 2.68,-3.09c1.15333,-0.74667 2.40333,-1.12 3.75,-1.12v0c2.19333,0 3.9,0.72333 5.12,2.17c1.22,1.45333 1.83,3.52667 1.83,6.22v0v1.21h-11.45c0.04,1.66667 0.52667,3.01 1.46,4.03c0.93333,1.02667 2.11667,1.54 3.55,1.54v0c1.02,0 1.88667,-0.20667 2.6,-0.62c0.70667,-0.42 1.32667,-0.97333 1.86,-1.66v0l1.76,1.38c-1.41333,2.17333 -3.53667,3.26 -6.37,3.26zM122.87,208.83833v0c-1.16667,0 -2.14667,0.42333 -2.94,1.27c-0.79333,0.84667 -1.28333,2.03667 -1.47,3.57v0h8.47v-0.22c-0.08667,-1.46667 -0.48333,-2.60333 -1.19,-3.41c-0.70667,-0.80667 -1.66333,-1.21 -2.87,-1.21zM143.01,219.19833v0c0,-0.78667 -0.29667,-1.39333 -0.89,-1.82c-0.58667,-0.43333 -1.61,-0.80667 -3.07,-1.12c-1.46667,-0.31333 -2.63,-0.69 -3.49,-1.13c-0.86,-0.43333 -1.49333,-0.95333 -1.9,-1.56c-0.41333,-0.60667 -0.62,-1.32667 -0.62,-2.16v0c0,-1.38 0.58667,-2.55 1.76,-3.51c1.16667,-0.96 2.66333,-1.44 4.49,-1.44v0c1.91333,0 3.46667,0.49667 4.66,1.49c1.19333,0.98667 1.79,2.25 1.79,3.79v0h-2.9c0,-0.78667 -0.33667,-1.46667 -1.01,-2.04c-0.67333,-0.57333 -1.52,-0.86 -2.54,-0.86v0c-1.05333,0 -1.87667,0.22667 -2.47,0.68c-0.59333,0.46 -0.89,1.06 -0.89,1.8v0c0,0.7 0.27667,1.22667 0.83,1.58c0.55333,0.35333 1.55,0.69 2.99,1.01c1.44,0.32667 2.61,0.71333 3.51,1.16c0.89333,0.44667 1.55667,0.98667 1.99,1.62c0.43333,0.62667 0.65,1.39333 0.65,2.3v0c0,1.51333 -0.60333,2.72667 -1.81,3.64c-1.21333,0.90667 -2.78333,1.36 -4.71,1.36v0c-1.35333,0 -2.55,-0.24 -3.59,-0.72c-1.04,-0.47333 -1.85667,-1.14 -2.45,-2c-0.58667,-0.86 -0.88,-1.79 -0.88,-2.79v0h2.89c0.05333,0.96667 0.44333,1.73333 1.17,2.3c0.72,0.56667 1.67333,0.85 2.86,0.85v0c1.09333,0 1.97333,-0.22 2.64,-0.66c0.66,-0.44 0.99,-1.03 0.99,-1.77zM150.7,202.67833h2.89v4.09h3.15v2.24h-3.15v10.48c0,0.68 0.14,1.19 0.42,1.53c0.28,0.33333 0.76,0.5 1.44,0.5v0c0.33333,0 0.79,-0.06 1.37,-0.18v0v2.34c-0.76,0.20667 -1.5,0.31 -2.22,0.31v0c-1.29333,0 -2.26667,-0.39 -2.92,-1.17c-0.65333,-0.78 -0.98,-1.89 -0.98,-3.33v0v-10.48h-3.08v-2.24h3.08zM168.29,206.67833v2.69c-0.44,-0.07333 -0.91333,-0.11 -1.42,-0.11v0c-1.9,0 -3.18667,0.80667 -3.86,2.42v0v12h-2.89v-16.91h2.81l0.05,1.96c0.94667,-1.51333 2.29,-2.27 4.03,-2.27v0c0.56,0 0.98667,0.07333 1.28,0.22zM169.87,215.26833v-0.2c0,-1.65333 0.32333,-3.14333 0.97,-4.47c0.65333,-1.32 1.56,-2.34 2.72,-3.06c1.16,-0.72 2.48667,-1.08 3.98,-1.08v0c2.3,0 4.16,0.79667 5.58,2.39c1.42667,1.59333 2.14,3.71333 2.14,6.36v0v0.2c0,1.64667 -0.31667,3.12333 -0.95,4.43c-0.62667,1.31333 -1.52667,2.33333 -2.7,3.06c-1.17333,0.72667 -2.52,1.09 -4.04,1.09v0c-2.29333,0 -4.15,-0.79667 -5.57,-2.39c-1.42,-1.59333 -2.13,-3.70333 -2.13,-6.33zM172.77,215.40833v0c0,1.88 0.43667,3.38667 1.31,4.52c0.86667,1.13333 2.03,1.7 3.49,1.7v0c1.46667,0 2.63333,-0.57333 3.5,-1.72c0.86667,-1.15333 1.3,-2.76667 1.3,-4.84v0c0,-1.85333 -0.44,-3.35667 -1.32,-4.51c-0.88,-1.14667 -2.05,-1.72 -3.51,-1.72v0c-1.42667,0 -2.57667,0.56667 -3.45,1.7c-0.88,1.13333 -1.32,2.75667 -1.32,4.87z"></path></g></g></svg>