<svg xmlns="http://www.w3.org/2000/svg" xmlns:xlink="http://www.w3.org/1999/xlink" viewBox="0,0,256,256" width="48px" height="48px" fill-rule="nonzero"><g fill="none" fill-rule="nonzero" stroke="none" stroke-width="1" stroke-linecap="butt" stroke-linejoin="miter" stroke-miterlimit="10" stroke-dasharray="" stroke-dashoffset="0" font-family="none" font-weight="none" font-size="none" text-anchor="none" style="mix-blend-mode: normal"><g transform="scale(5.33333,5.33333)"><path d="M45,35c0,2.209 -1.791,4 -4,4h-34c-2.209,0 -4,-1.791 -4,-4v-22c0,-2.209 1.791,-4 4,-4h34c2.209,0 4,1.791 4,4z" fill="#3f51b5"></path><path d="M30,14c-5.52285,0 -10,4.47715 -10,10c0,5.52285 4.47715,10 10,10c5.52285,0 10,-4.47715 10,-10c0,-5.52285 -4.47715,-10 -10,-10z" fill="#ffc107"></path><path d="M22.014,30c-0.464,-0.617 -0.863,-1.284 -1.176,-2h5.325c0.278,-0.636 0.496,-1.304 0.637,-2h-6.598c-0.132,-0.646 -0.202,-1.314 -0.202,-2h7c0,-0.686 -0.07,-1.354 -0.201,-2h-6.598c0.142,-0.696 0.359,-1.364 0.637,-2h5.325c-0.313,-0.716 -0.711,-1.383 -1.176,-2h-2.973c0.437,-0.58 0.93,-1.122 1.481,-1.595c-1.748,-1.496 -4.014,-2.405 -6.495,-2.405c-5.523,0 -10,4.477 -10,10c0,5.523 4.477,10 10,10c3.269,0 6.162,-1.575 7.986,-4z" fill="#ff3d00"></path></g></g><g fill="#ffffff" fill-rule="nonzero" stroke="none" stroke-width="1" stroke-linecap="butt" stroke-linejoin="miter" stroke-miterlimit="10" stroke-dasharray="" stroke-dashoffset="0" font-family="none" font-weight="none" font-size="none" text-anchor="none" style="mix-blend-mode: normal"><g><path d="M59.1,188.78h2.28l0.06,1.56c1.03333,-1.21333 2.42667,-1.82 4.18,-1.82v0c1.97333,0 3.31667,0.75333 4.03,2.26v0c0.46667,-0.67333 1.07667,-1.22 1.83,-1.64c0.74667,-0.41333 1.63333,-0.62 2.66,-0.62v0c3.08667,0 4.65667,1.63667 4.71,4.91v0v9.44h-2.41v-9.3c0,-1.00667 -0.23,-1.76 -0.69,-2.26c-0.46,-0.5 -1.23,-0.75 -2.31,-0.75v0c-0.9,0 -1.64333,0.26667 -2.23,0.8c-0.59333,0.53333 -0.93667,1.25333 -1.03,2.16v0v9.35h-2.42v-9.24c0,-2.04667 -1.00333,-3.07 -3.01,-3.07v0c-1.58,0 -2.66,0.67333 -3.24,2.02v0v10.29h-2.41zM93.71,202.87h-2.53c-0.14,-0.28 -0.25333,-0.77667 -0.34,-1.49v0c-1.11333,1.16667 -2.45,1.75 -4.01,1.75v0c-1.38667,0 -2.52333,-0.39333 -3.41,-1.18c-0.89333,-0.78667 -1.34,-1.78333 -1.34,-2.99v0c0,-1.46667 0.55667,-2.60667 1.67,-3.42c1.12,-0.80667 2.69,-1.21 4.71,-1.21v0h2.35v-1.11c0,-0.84 -0.25333,-1.51 -0.76,-2.01c-0.5,-0.5 -1.24333,-0.75 -2.23,-0.75v0c-0.86,0 -1.58,0.21667 -2.16,0.65c-0.58,0.43333 -0.87,0.95667 -0.87,1.57v0h-2.42c0,-0.7 0.25,-1.37667 0.75,-2.03c0.5,-0.66 1.17667,-1.18 2.03,-1.56c0.85333,-0.38 1.79333,-0.57 2.82,-0.57v0c1.62,0 2.89,0.40667 3.81,1.22c0.92,0.80667 1.39667,1.92333 1.43,3.35v0v6.48c0,1.29333 0.16667,2.32333 0.5,3.09v0zM87.19,201.03v0c0.75333,0 1.46667,-0.19667 2.14,-0.59c0.68,-0.38667 1.17333,-0.89333 1.48,-1.52v0v-2.89h-1.89c-2.95333,0 -4.43,0.86333 -4.43,2.59v0c0,0.75333 0.25333,1.34333 0.76,1.77c0.5,0.42667 1.14667,0.64 1.94,0.64zM105.19,199.13v0c0,-0.65333 -0.24333,-1.16 -0.73,-1.52c-0.49333,-0.36 -1.35,-0.67 -2.57,-0.93c-1.22,-0.26 -2.18667,-0.57333 -2.9,-0.94c-0.71333,-0.36 -1.24333,-0.79333 -1.59,-1.3c-0.34,-0.5 -0.51,-1.09667 -0.51,-1.79v0c0,-1.16 0.48667,-2.13667 1.46,-2.93c0.98,-0.8 2.22667,-1.2 3.74,-1.2v0c1.6,0 2.89667,0.41 3.89,1.23c0.99333,0.82667 1.49,1.88333 1.49,3.17v0h-2.42c0,-0.66 -0.28,-1.23 -0.84,-1.71c-0.56,-0.47333 -1.26667,-0.71 -2.12,-0.71v0c-0.87333,0 -1.55667,0.19 -2.05,0.57c-0.49333,0.38 -0.74,0.88 -0.74,1.5v0c0,0.58 0.23,1.01667 0.69,1.31c0.46,0.3 1.29,0.58333 2.49,0.85c1.2,0.26667 2.17333,0.58667 2.92,0.96c0.74667,0.37333 1.3,0.82333 1.66,1.35c0.36,0.52667 0.54,1.16667 0.54,1.92v0c0,1.26 -0.50333,2.27 -1.51,3.03c-1.00667,0.76 -2.31333,1.14 -3.92,1.14v0c-1.12667,0 -2.12333,-0.2 -2.99,-0.6c-0.86667,-0.4 -1.54667,-0.96 -2.04,-1.68c-0.49333,-0.71333 -0.74,-1.48667 -0.74,-2.32v0h2.41c0.04667,0.80667 0.37,1.44667 0.97,1.92c0.60667,0.47333 1.40333,0.71 2.39,0.71v0c0.91333,0 1.64667,-0.18333 2.2,-0.55c0.54667,-0.37333 0.82,-0.86667 0.82,-1.48zM111.6,185.37h2.41v3.41h2.63v1.86h-2.63v8.74c0,0.56 0.11667,0.98333 0.35,1.27c0.23333,0.28 0.63333,0.42 1.2,0.42v0c0.27333,0 0.65333,-0.05333 1.14,-0.16v0v1.96c-0.63333,0.17333 -1.24667,0.26 -1.84,0.26v0c-1.08,0 -1.89333,-0.32667 -2.44,-0.98c-0.54667,-0.65333 -0.82,-1.57667 -0.82,-2.77v0v-8.74h-2.57v-1.86h2.57zM125.3,203.13v0c-1.91333,0 -3.46667,-0.62667 -4.66,-1.88c-1.2,-1.26 -1.8,-2.94 -1.8,-5.04v0v-0.44c0,-1.4 0.26667,-2.64667 0.8,-3.74c0.53333,-1.1 1.28,-1.96 2.24,-2.58c0.96,-0.62 2,-0.93 3.12,-0.93v0c1.83333,0 3.25667,0.60333 4.27,1.81c1.01333,1.20667 1.52,2.93333 1.52,5.18v0v1h-9.54c0.03333,1.39333 0.44,2.51667 1.22,3.37c0.77333,0.85333 1.76,1.28 2.96,1.28v0c0.84667,0 1.56667,-0.17333 2.16,-0.52c0.58667,-0.34667 1.10333,-0.80667 1.55,-1.38v0l1.47,1.15c-1.18,1.81333 -2.95,2.72 -5.31,2.72zM125,190.5v0c-0.97333,0 -1.79,0.35333 -2.45,1.06c-0.66,0.70667 -1.06667,1.69667 -1.22,2.97v0h7.05v-0.18c-0.06667,-1.22 -0.39667,-2.16667 -0.99,-2.84c-0.58667,-0.67333 -1.38333,-1.01 -2.39,-1.01zM140.39,188.7v2.24c-0.36667,-0.06 -0.76333,-0.09 -1.19,-0.09v0c-1.58,0 -2.65,0.67333 -3.21,2.02v0v10h-2.41v-14.09h2.34l0.04,1.63c0.79333,-1.26 1.91333,-1.89 3.36,-1.89v0c0.46667,0 0.82333,0.06 1.07,0.18zM148.01,201.16v0c0.86,0 1.61,-0.26 2.25,-0.78c0.64,-0.52 0.99667,-1.17 1.07,-1.95v0h2.28c-0.04667,0.80667 -0.32667,1.57333 -0.84,2.3c-0.51333,0.72667 -1.19667,1.31 -2.05,1.75c-0.85333,0.43333 -1.75667,0.65 -2.71,0.65v0c-1.92,0 -3.44667,-0.64 -4.58,-1.92c-1.13333,-1.28 -1.7,-3.03333 -1.7,-5.26v0v-0.4c0,-1.37333 0.25333,-2.59333 0.76,-3.66c0.5,-1.06667 1.22,-1.89667 2.16,-2.49c0.94667,-0.58667 2.06,-0.88 3.34,-0.88v0c1.58,0 2.89333,0.47333 3.94,1.42c1.04667,0.94667 1.60667,2.17333 1.68,3.68v0h-2.28c-0.07333,-0.91333 -0.42,-1.66 -1.04,-2.24c-0.62,-0.58667 -1.38667,-0.88 -2.3,-0.88v0c-1.22,0 -2.16667,0.44 -2.84,1.32c-0.67333,0.88 -1.01,2.15333 -1.01,3.82v0v0.46c0,1.62 0.33333,2.87 1,3.75c0.66667,0.87333 1.62333,1.31 2.87,1.31zM167.54,202.87h-2.53c-0.14,-0.28 -0.25333,-0.77667 -0.34,-1.49v0c-1.12,1.16667 -2.45667,1.75 -4.01,1.75v0c-1.38667,0 -2.52667,-0.39333 -3.42,-1.18c-0.88667,-0.78667 -1.33,-1.78333 -1.33,-2.99v0c0,-1.46667 0.55667,-2.60667 1.67,-3.42c1.12,-0.80667 2.69,-1.21 4.71,-1.21v0h2.34v-1.11c0,-0.84 -0.25,-1.51 -0.75,-2.01c-0.50667,-0.5 -1.25,-0.75 -2.23,-0.75v0c-0.86,0 -1.58,0.21667 -2.16,0.65c-0.58,0.43333 -0.87,0.95667 -0.87,1.57v0h-2.42c0,-0.7 0.24667,-1.37667 0.74,-2.03c0.5,-0.66 1.18,-1.18 2.04,-1.56c0.85333,-0.38 1.79333,-0.57 2.82,-0.57v0c1.62,0 2.89,0.40667 3.81,1.22c0.92,0.80667 1.39667,1.92333 1.43,3.35v0v6.48c0,1.29333 0.16667,2.32333 0.5,3.09v0zM161.01,201.03v0c0.76,0 1.47667,-0.19667 2.15,-0.59c0.68,-0.38667 1.17,-0.89333 1.47,-1.52v0v-2.89h-1.88c-2.95333,0 -4.43,0.86333 -4.43,2.59v0c0,0.75333 0.25,1.34333 0.75,1.77c0.50667,0.42667 1.15333,0.64 1.94,0.64zM177.63,188.7v2.24c-0.36667,-0.06 -0.76333,-0.09 -1.19,-0.09v0c-1.58,0 -2.65,0.67333 -3.21,2.02v0v10h-2.41v-14.09h2.34l0.04,1.63c0.79333,-1.26 1.91333,-1.89 3.36,-1.89v0c0.46667,0 0.82333,0.06 1.07,0.18zM179.01,195.89v-0.18c0,-2.16667 0.51333,-3.90667 1.54,-5.22c1.02,-1.31333 2.36,-1.97 4.02,-1.97v0c1.64667,0 2.95333,0.56333 3.92,1.69v0v-7.34h2.41v20h-2.22l-0.11,-1.51c-0.96667,1.18 -2.31,1.77 -4.03,1.77v0c-1.63333,0 -2.96333,-0.67 -3.99,-2.01c-1.02667,-1.33333 -1.54,-3.07667 -1.54,-5.23zM181.42,195.98v0c0,1.59333 0.33,2.84333 0.99,3.75c0.66,0.9 1.57,1.35 2.73,1.35v0c1.52667,0 2.64333,-0.68333 3.35,-2.05v0v-6.48c-0.72,-1.32667 -1.82667,-1.99 -3.32,-1.99v0c-1.18,0 -2.1,0.45667 -2.76,1.37c-0.66,0.91333 -0.99,2.26333 -0.99,4.05z"></path></g></g></svg>