<svg xmlns="http://www.w3.org/2000/svg" xmlns:xlink="http://www.w3.org/1999/xlink" viewBox="0,0,256,256" width="48px" height="48px" fill-rule="nonzero"><g fill="none" fill-rule="nonzero" stroke="none" stroke-width="1" stroke-linecap="butt" stroke-linejoin="miter" stroke-miterlimit="10" stroke-dasharray="" stroke-dashoffset="0" font-family="none" font-weight="none" font-size="none" text-anchor="none" style="mix-blend-mode: normal"><g transform="scale(5.33333,5.33333)"><path d="M18.7,13.767l0.005,0.002c0.104,-0.443 0.482,-0.769 0.955,-0.769h13.472c0.017,0 0.034,-0.007 0.051,-0.006c-0.287,-4.779 -4.296,-6.994 -7.833,-6.994h-13.472c-0.474,0 -0.852,0.335 -0.955,0.777l-0.005,-0.002l-5.889,27.038l0.013,0.001c-0.014,0.064 -0.039,0.125 -0.039,0.194c0,0.553 0.447,0.991 1,0.991h8.071z" fill="#1565c0"></path><path d="M33.183,12.994c0.053,0.876 -0.005,1.829 -0.229,2.882c-1.281,5.995 -5.912,9.115 -11.635,9.115c0,0 -3.47,0 -4.313,0c-0.521,0 -0.767,0.306 -0.88,0.54l-1.74,8.049l-0.305,1.429h-0.006l-1.263,5.796l0.013,0.001c-0.014,0.064 -0.039,0.125 -0.039,0.194c0,0.553 0.447,1 1,1h7.333l0.013,-0.01c0.472,-0.007 0.847,-0.344 0.945,-0.788l0.018,-0.015l1.812,-8.416c0,0 0.126,-0.803 0.97,-0.803c0.844,0 4.178,0 4.178,0c5.723,0 10.401,-3.106 11.683,-9.102c1.442,-6.76 -3.38,-9.847 -7.555,-9.872z" fill="#039be5"></path><path d="M19.66,13c-0.474,0 -0.852,0.326 -0.955,0.769l-0.005,-0.002l-2.575,11.765c0.113,-0.234 0.359,-0.54 0.88,-0.54c0.844,0 4.235,0 4.235,0c5.723,0 10.432,-3.12 11.713,-9.115c0.225,-1.053 0.282,-2.006 0.229,-2.882c-0.016,-0.002 -0.034,0.005 -0.05,0.005z" fill="#283593"></path></g></g><g fill="#000000" fill-rule="nonzero" stroke="none" stroke-width="1" stroke-linecap="butt" stroke-linejoin="miter" stroke-miterlimit="10" stroke-dasharray="" stroke-dashoffset="0" font-family="none" font-weight="none" font-size="none" text-anchor="none" style="mix-blend-mode: normal"><g><path d="M75.12167,239.725h-4.47v7.43h-2.5v-18.96h6.99c2.07333,0 3.7,0.53 4.88,1.59c1.17333,1.06 1.76,2.46 1.76,4.2v0c0,1.84 -0.57333,3.25667 -1.72,4.25c-1.15333,0.99333 -2.8,1.49 -4.94,1.49zM70.65167,230.255v7.43h4.49c1.34,0 2.36667,-0.31333 3.08,-0.94c0.70667,-0.63333 1.06,-1.54333 1.06,-2.73v0c0,-1.12667 -0.35333,-2.03 -1.06,-2.71c-0.71333,-0.68 -1.69,-1.03 -2.93,-1.05v0zM95.68167,247.155h-2.53c-0.14,-0.28 -0.25333,-0.77667 -0.34,-1.49v0c-1.12,1.16667 -2.45667,1.75 -4.01,1.75v0c-1.38667,0 -2.52667,-0.39333 -3.42,-1.18c-0.88667,-0.78667 -1.33,-1.78333 -1.33,-2.99v0c0,-1.46667 0.55667,-2.60667 1.67,-3.42c1.12,-0.80667 2.69,-1.21 4.71,-1.21v0h2.34v-1.11c0,-0.84 -0.25,-1.51 -0.75,-2.01c-0.50667,-0.5 -1.25,-0.75 -2.23,-0.75v0c-0.86,0 -1.58,0.21667 -2.16,0.65c-0.58,0.43333 -0.87,0.95667 -0.87,1.57v0h-2.42c0,-0.7 0.24667,-1.37667 0.74,-2.03c0.5,-0.66 1.18,-1.18 2.04,-1.56c0.85333,-0.38 1.79,-0.57 2.81,-0.57v0c1.62667,0 2.9,0.40667 3.82,1.22c0.92,0.80667 1.39667,1.92333 1.43,3.35v0v6.48c0,1.29333 0.16667,2.32333 0.5,3.09v0zM89.15167,245.315v0c0.76,0 1.47667,-0.19667 2.15,-0.59c0.68,-0.38667 1.17,-0.89333 1.47,-1.52v0v-2.89h-1.89c-2.94667,0 -4.42,0.86333 -4.42,2.59v0c0,0.75333 0.25,1.34333 0.75,1.77c0.50667,0.42667 1.15333,0.64 1.94,0.64zM99.86167,233.065l3.51,10.56l3.28,-10.56h2.58l-5.66,16.26c-0.88,2.34667 -2.27333,3.52 -4.18,3.52v0l-0.46,-0.04l-0.9,-0.17v-1.95l0.65,0.05c0.82,0 1.45667,-0.16667 1.91,-0.5c0.46,-0.32667 0.83667,-0.93 1.13,-1.81v0l0.53,-1.43l-5.02,-13.93zM118.72167,239.725h-4.46v7.43h-2.5v-18.96h6.99c2.07333,0 3.7,0.53 4.88,1.59c1.17333,1.06 1.76,2.46 1.76,4.2v0c0,1.84 -0.57667,3.25667 -1.73,4.25c-1.14667,0.99333 -2.79333,1.49 -4.94,1.49zM114.26167,230.255v7.43h4.49c1.33333,0 2.35667,-0.31333 3.07,-0.94c0.71333,-0.63333 1.07,-1.54333 1.07,-2.73v0c0,-1.12667 -0.35667,-2.03 -1.07,-2.71c-0.71333,-0.68 -1.69,-1.03 -2.93,-1.05v0zM139.28167,247.155h-2.52c-0.14,-0.28 -0.25333,-0.77667 -0.34,-1.49v0c-1.12,1.16667 -2.45667,1.75 -4.01,1.75v0c-1.38667,0 -2.52667,-0.39333 -3.42,-1.18c-0.88667,-0.78667 -1.33,-1.78333 -1.33,-2.99v0c0,-1.46667 0.55667,-2.60667 1.67,-3.42c1.11333,-0.80667 2.68333,-1.21 4.71,-1.21v0h2.34v-1.11c0,-0.84 -0.25333,-1.51 -0.76,-2.01c-0.5,-0.5 -1.24,-0.75 -2.22,-0.75v0c-0.86,0 -1.58,0.21667 -2.16,0.65c-0.58667,0.43333 -0.88,0.95667 -0.88,1.57v0h-2.42c0,-0.7 0.25,-1.37667 0.75,-2.03c0.5,-0.66 1.17667,-1.18 2.03,-1.56c0.85333,-0.38 1.79333,-0.57 2.82,-0.57v0c1.62667,0 2.9,0.40667 3.82,1.22c0.92,0.80667 1.39667,1.92333 1.43,3.35v0v6.48c0,1.29333 0.16333,2.32333 0.49,3.09v0zM132.76167,245.315v0c0.75333,0 1.47,-0.19667 2.15,-0.59c0.67333,-0.38667 1.16333,-0.89333 1.47,-1.52v0v-2.89h-1.89c-2.95333,0 -4.43,0.86333 -4.43,2.59v0c0,0.75333 0.25333,1.34333 0.76,1.77c0.50667,0.42667 1.15333,0.64 1.94,0.64zM145.18167,227.155v20h-2.41v-20z"></path></g></g></svg>