<svg xmlns="http://www.w3.org/2000/svg" width="48" height="32" aria-hidden="true"><rect width="46.6" height="30.6" x=".7" y=".7" fill="#fff" rx="3.3"/><path fill="#ddd" d="M44 1.4A2.61 2.61 0 0 1 46.6 4v24a2.61 2.61 0 0 1-2.6 2.6H4A2.61 2.61 0 0 1 1.4 28V4A2.61 2.61 0 0 1 4 1.4zM44 0H4a4 4 0 0 0-4 4v24a4 4 0 0 0 4 4h40a4 4 0 0 0 4-4V4a4 4 0 0 0-4-4z"/><g fill-rule="evenodd"><path fill="#453127" d="M24 28.16c.24-.08 5.67-2.44 7.4-3.86a7.5 7.5 0 0 0 2.75-6.06V6.44a23.4 23.4 0 0 0-20.15 0v11.8a7.4 7.4 0 0 0 2.76 6.06c1.57 1.42 7 3.78 7.24 3.86"/><path fill="#f3b729" d="M24 28.24s-5.75-2.44-7.56-3.94a7.54 7.54 0 0 1-2.75-6.13V6.05A23.68 23.68 0 0 1 24 3.76a23.68 23.68 0 0 1 10.31 2.29v12.19a7.56 7.56 0 0 1-2.75 6.14C29.75 25.8 24 28.24 24 28.24zm-9.44-10.07a6.93 6.93 0 0 0 2.44 5.5c1.41 1.19 5.82 3.15 7 3.7 1.18-.55 5.59-2.51 7-3.7a6.93 6.93 0 0 0 2.44-5.5V6.2c-6.06-.55-13.22-.23-18.88 5zm15.26-1.66c.79.47 1.11.79 1.11 1.34a1 1 0 0 1-1.11 1 3 3 0 0 1-1.73-.7v1.65a4.14 4.14 0 0 0 2 .55 2.4 2.4 0 0 0 2.6-2.44 2.81 2.81 0 0 0-1.81-2.76c-.71-.39-1.18-.62-1.18-1.33s.55-.87 1.1-.87a2.84 2.84 0 0 1 1.65.71v-1.55a2.94 2.94 0 0 0-2-.56A2.39 2.39 0 0 0 28 13.92c0 1 .32 1.73 1.81 2.59m-6.21 3.7a2.11 2.11 0 0 0 .78.08c2.05 0 3.15-1.81 3.15-4.49s-1.18-4.25-3.38-4.25a4.49 4.49 0 0 0-2.44.63V24h1.81v-3.79zm0-7a1.42 1.42 0 0 1 .63-.16c1 0 1.49.87 1.49 2.83s-.47 2.92-1.57 2.92a4.27 4.27 0 0 1-.55-.08zm-5.43 7.16a5 5 0 0 0 2.75-.71v-7.87h-1.8v6.85a1.41 1.41 0 0 1-.87.23c-.86 0-.94-.78-.94-1.26v-5.74H15.5v5.67c0 1.88.87 2.83 2.68 2.83"/></g></svg>